<?xml version="1.0" encoding="UTF-8"?>
<svg id="Layer_2" data-name="Layer 2" xmlns="http://www.w3.org/2000/svg" xmlns:xlink="http://www.w3.org/1999/xlink" viewBox="0 0 321 140">
  <defs>
    <style>
      .cls-1 {
        fill: #72695a;
      }

      .cls-2 {
        clip-path: url(#clippath-2);
      }

      .cls-3 {
        clip-path: url(#clippath-1);
      }

      .cls-4 {
        clip-path: url(#clippath);
      }

      .cls-5 {
        fill: #b3add6;
      }

      .cls-6 {
        fill: none;
      }

      .cls-7 {
        fill: #a9b989;
      }

      .cls-8 {
        fill: #fad02c;
      }
    </style>
    <clipPath id="clippath">
      <rect class="cls-6" y="71" width="43" height="37"/>
    </clipPath>
    <clipPath id="clippath-1">
      <rect class="cls-6" x="37" y="95" width="52" height="45"/>
    </clipPath>
    <clipPath id="clippath-2">
      <rect class="cls-6" x="82" width="68" height="58"/>
    </clipPath>
  </defs>
  <g id="Layer_1-2" data-name="Layer 1">
    <g>
      <g class="cls-4">
        <path class="cls-1" d="m31.96,71l10.43,17.97-10.43,18.03H11.15L.73,88.98l10.43-17.98h20.81Z"/>
      </g>
      <path class="cls-5" d="m76.31,39l12.74,22-12.74,22h-25.39l-12.75-22,12.75-22h25.39Z"/>
      <g class="cls-3">
        <path class="cls-8" d="m75.86,96l12.7,22-12.7,22h-25.44l-12.75-22,12.75-22h25.44Z"/>
      </g>
      <g class="cls-2">
        <path class="cls-7" d="m132.81-1l16.76,28.97-16.76,29.03h-33.56l-16.76-29.03L99.25-1h33.56Z"/>
      </g>
      <path class="cls-8" d="m107,83v26h-6v-26h-10v-4h26v4h-10Z"/>
      <path class="cls-8" d="m126.91,90c.81-1.81,1.83-3.13,3.06-3.95,1.24-.82,2.7-1.23,4.4-1.23,2.46,0,4.34.78,5.65,2.34,1.32,1.55,1.98,3.82,1.98,6.8v15.05h-6v-13.14c0-4.12-1.38-6.19-4.14-6.19-1.46,0-2.64.64-3.54,1.91-.89,1.26-1.33,2.88-1.33,4.86v12.56h-6v-32h6v8.32c0,1.59-.06,3.15-.19,4.68h.09Z"/>
      <path class="cls-8" d="m149,109v-17.59c0-1.26-.02-2.32-.06-3.15-.03-.85-.07-1.6-.12-2.25h5.74c.05.26.1,1.05.16,2.37.07,1.32.1,2.2.1,2.63h.09c.56-1.65,1.06-2.81,1.49-3.47.44-.67.96-1.17,1.57-1.5.6-.32,1.35-.48,2.26-.48.74,0,1.33.11,1.77.33v5.08c-.93-.22-1.74-.33-2.45-.33-1.44,0-2.55.62-3.35,1.84-.8,1.23-1.2,3.05-1.2,5.45v11.08h-6Z"/>
      <path class="cls-8" d="m167,81v-4h6v4h-6Zm0,28v-23h6v23h-6Z"/>
      <path class="cls-8" d="m192.2,109h-7.15l-8.22-23h6.31l4.03,12.86c.21.7.71,2.48,1.5,5.31.14-.58.43-1.6.87-3.06.44-1.46,2.07-6.5,4.9-15.11h6.25l-8.48,23Z"/>
      <path class="cls-8" d="m214.52,110c-3.52,0-6.23-1.04-8.12-3.12-1.9-2.09-2.84-5.14-2.84-9.16s.96-6.85,2.88-8.94c1.93-2.08,4.66-3.12,8.19-3.12s5.94,1.12,7.72,3.36c1.78,2.23,2.67,5.5,2.67,9.81v.17h-15.05c0,2.28.42,4.01,1.27,5.17.84,1.17,2.05,1.75,3.61,1.75,2.16,0,3.52-.93,4.08-2.8l5.75.5c-1.67,4.25-5.05,6.38-10.14,6.38Zm-.16-20.69c-1.43,0-2.53.5-3.3,1.5-.77.99-1.18,2.39-1.23,4.19h9.11c-.12-1.89-.57-3.32-1.36-4.27-.79-.95-1.87-1.42-3.22-1.42Z"/>
      <path class="cls-1" d="m249,109v-13h-13v13h-6v-31h6v13h13v-13h7v31h-7Z"/>
      <path class="cls-1" d="m263,81v-4h6v4h-6Zm0,28v-23h6v23h-6Z"/>
      <path class="cls-1" d="m288.17,109h-7.15l-8.22-23h6.31l4.03,12.86c.21.7.71,2.48,1.5,5.31.14-.58.43-1.6.87-3.06.44-1.46,2.07-6.5,4.9-15.11h6.25l-8.48,23Z"/>
      <path class="cls-1" d="m310.52,110c-3.52,0-6.23-1.04-8.12-3.12-1.9-2.09-2.84-5.14-2.84-9.16s.96-6.85,2.88-8.94c1.93-2.08,4.66-3.12,8.19-3.12s5.94,1.12,7.72,3.36c1.78,2.23,2.67,5.5,2.67,9.81v.17h-15.05c0,2.28.42,4.01,1.27,5.17.84,1.17,2.05,1.75,3.61,1.75,2.16,0,3.52-.93,4.08-2.8l5.75.5c-1.67,4.25-5.05,6.38-10.14,6.38Zm-.19-20.69c-1.43,0-2.53.5-3.3,1.5-.77.99-1.18,2.39-1.23,4.19h9.11c-.12-1.89-.57-3.32-1.36-4.27-.79-.95-1.87-1.42-3.22-1.42Z"/>
    </g>
  </g>
</svg>